<svg xmlns="http://www.w3.org/2000/svg" viewBox="0 0 85.53 69.94"><defs><style>.cls-1{fill:#66a062;}</style></defs><title>UEA_svg</title><g id="Camada_2" data-name="Camada 2"><g id="Camada_1-2" data-name="Camada 1"><path class="cls-1" d="M73.45.11H65.57L55.76,22.43H37.53v-6.9H53.6V10.68h-16V4.85H55.05V0L30.74.11V27.72h30.2L63.09,22H76.25l2,5.72h7.23ZM64.79,17.24,69.53,5.56,74.2,17.24Z"/><path class="cls-1" d="M14,28.4s12,.29,13.23-8.84c-.07-8.27,0-19.56,0-19.56h-6.9V17.26s.5,6.32-6.33,6.11h-.43c-6.83.21-6.33-6.11-6.33-6.11V0H.36s.07,11.29,0,19.56c1.22,9.13,13.23,8.84,13.23,8.84Z"/><path class="cls-1" d="M7.23,35.49v4.92a2.21,2.21,0,0,1-.88,1.86A3.74,3.74,0,0,1,4,43a3.77,3.77,0,0,1-2.37-.68,2.21,2.21,0,0,1-.88-1.87V35.49H2.25v4.93a1.41,1.41,0,0,0,.44,1.13,1.91,1.91,0,0,0,1.3.39q1.74,0,1.74-1.56V35.49Z"/><path class="cls-1" d="M15.73,42.86h-1.5l-3.88-5.23v5.23H8.84V35.49h1.51l3.89,5.25V35.49h1.49Z"/><path class="cls-1" d="M19.11,42.86h-1.5V35.49h1.5Z"/><path class="cls-1" d="M24,41.25l2.2-5.76h1.66l-3.12,7.37H23.31l-3.12-7.37h1.65Z"/><path class="cls-1" d="M34,39.57H30.38v2.26h4.17v1H28.87V35.49h5.64v1H30.38v2H34Z"/><path class="cls-1" d="M39,40H37.29v2.84H35.78V35.49h3a4,4,0,0,1,2.33.58A1.89,1.89,0,0,1,42,37.72,1.86,1.86,0,0,1,41.55,39a2.6,2.6,0,0,1-1.17.76l1.95,3.07v.07H40.71Zm-1.68-1h1.55A2,2,0,0,0,40,38.67a1.06,1.06,0,0,0,.43-.9,1.12,1.12,0,0,0-.39-.91,1.84,1.84,0,0,0-1.19-.33H37.29Z"/><path class="cls-1" d="M47.94,41a.85.85,0,0,0-.4-.75,5.55,5.55,0,0,0-1.45-.53,7.67,7.67,0,0,1-1.67-.6,1.87,1.87,0,0,1-1.19-1.64A1.71,1.71,0,0,1,44.09,36a3.93,3.93,0,0,1,2.22-.58,4.37,4.37,0,0,1,1.62.29,2.57,2.57,0,0,1,1.11.8,1.87,1.87,0,0,1,.41,1.16H47.94a1.08,1.08,0,0,0-.42-.9,2,2,0,0,0-1.22-.33,2.06,2.06,0,0,0-1.15.27.86.86,0,0,0-.41.75.8.8,0,0,0,.44.68,5.7,5.7,0,0,0,1.46.52,7.94,7.94,0,0,1,1.63.58,2.47,2.47,0,0,1,.9.75,1.72,1.72,0,0,1,.28,1,1.65,1.65,0,0,1-.83,1.46,4,4,0,0,1-2.26.55,4.87,4.87,0,0,1-1.73-.3,2.86,2.86,0,0,1-1.23-.82A1.82,1.82,0,0,1,43,40.63h1.51a1.13,1.13,0,0,0,.49,1,2.43,2.43,0,0,0,1.4.35,2.14,2.14,0,0,0,1.19-.27A.85.85,0,0,0,47.94,41Z"/><path class="cls-1" d="M52.37,42.86h-1.5V35.49h1.5Z"/><path class="cls-1" d="M54.23,42.86V35.49h2.56a4.64,4.64,0,0,1,2.05.44,3.3,3.3,0,0,1,1.38,1.23A3.53,3.53,0,0,1,60.71,39v.37a3.4,3.4,0,0,1-.5,1.84,3.18,3.18,0,0,1-1.4,1.23,4.92,4.92,0,0,1-2.08.43Zm1.51-6.33v5.3h1a2.47,2.47,0,0,0,1.82-.63,2.43,2.43,0,0,0,.65-1.8V39a2.51,2.51,0,0,0-.61-1.83,2.4,2.4,0,0,0-1.79-.63Z"/><path class="cls-1" d="M67,41.14H63.58l-.7,1.72H61.31l3.28-7.37h1.35l3.29,7.37H67.66Zm-3-1h2.52l-1.26-3Z"/><path class="cls-1" d="M70.22,42.86V35.49h2.56a4.57,4.57,0,0,1,2,.44,3.27,3.27,0,0,1,1.39,1.23A3.52,3.52,0,0,1,76.69,39v.37a3.4,3.4,0,0,1-.49,1.84,3.24,3.24,0,0,1-1.4,1.23,4.94,4.94,0,0,1-2.09.43Zm1.5-6.33v5.3h1a2.47,2.47,0,0,0,1.82-.63,2.43,2.43,0,0,0,.65-1.8V39a2.52,2.52,0,0,0-.62-1.83,2.37,2.37,0,0,0-1.78-.63Z"/><path class="cls-1" d="M83.27,39.57H79.71v2.26h4.17v1H78.2V35.49h5.64v1H79.71v2h3.56Z"/><path class="cls-1" d="M.88,54.42V47.06H3.45a4.63,4.63,0,0,1,2,.43,3.26,3.26,0,0,1,1.38,1.24,3.39,3.39,0,0,1,.49,1.83v.37a3.51,3.51,0,0,1-.49,1.84A3.31,3.31,0,0,1,5.46,54a4.75,4.75,0,0,1-2.08.43Zm1.51-6.33V53.4h1a2.51,2.51,0,0,0,1.83-.63A2.45,2.45,0,0,0,5.84,51v-.41a2.51,2.51,0,0,0-.61-1.83,2.39,2.39,0,0,0-1.78-.63Z"/><path class="cls-1" d="M15.79,50.93a3.89,3.89,0,0,1-.44,1.9,3,3,0,0,1-1.26,1.25,4,4,0,0,1-1.89.44,4,4,0,0,1-1.88-.44A3.06,3.06,0,0,1,9,52.84,3.78,3.78,0,0,1,8.59,51v-.41A3.87,3.87,0,0,1,9,48.66a3.11,3.11,0,0,1,1.27-1.27A4,4,0,0,1,12.19,47a3.92,3.92,0,0,1,1.88.43,3,3,0,0,1,1.27,1.24,3.83,3.83,0,0,1,.45,1.89Zm-1.5-.38a2.89,2.89,0,0,0-.55-1.88A1.92,1.92,0,0,0,12.19,48a1.88,1.88,0,0,0-1.53.65,2.73,2.73,0,0,0-.56,1.84v.42a2.87,2.87,0,0,0,.55,1.88,1.93,1.93,0,0,0,1.55.66,1.92,1.92,0,0,0,1.55-.65,2.88,2.88,0,0,0,.54-1.89Z"/><path class="cls-1" d="M25.42,51.13H21.85V53.4H26v1H20.34V47.06H26v1H21.85v2h3.57Z"/><path class="cls-1" d="M31.79,52.52a.87.87,0,0,0-.4-.75,5.66,5.66,0,0,0-1.46-.53,7.39,7.39,0,0,1-1.67-.59A1.86,1.86,0,0,1,27.08,49a1.73,1.73,0,0,1,.85-1.47A3.93,3.93,0,0,1,30.15,47a4.3,4.3,0,0,1,1.62.28,2.62,2.62,0,0,1,1.12.81,1.82,1.82,0,0,1,.4,1.16h-1.5a1.07,1.07,0,0,0-.43-.91A2,2,0,0,0,30.14,48a2.1,2.1,0,0,0-1.15.27.82.82,0,0,0-.4.74.78.78,0,0,0,.44.68,5.6,5.6,0,0,0,1.45.52,7.16,7.16,0,0,1,1.63.59,2.36,2.36,0,0,1,.9.74,1.77,1.77,0,0,1,.29,1A1.69,1.69,0,0,1,32.47,54a4.13,4.13,0,0,1-2.26.54,4.89,4.89,0,0,1-1.74-.3,2.87,2.87,0,0,1-1.22-.81,1.8,1.8,0,0,1-.44-1.22h1.51a1.12,1.12,0,0,0,.49,1,2.47,2.47,0,0,0,1.4.34,2.1,2.1,0,0,0,1.18-.27A.82.82,0,0,0,31.79,52.52Z"/><path class="cls-1" d="M40.9,48.09H38.19v6.33h-1.5V48.09H34v-1H40.9Z"/><path class="cls-1" d="M46.18,52.7H42.82l-.7,1.72H40.55l3.28-7.36h1.35l3.29,7.36H46.89Zm-2.94-1h2.52L44.5,48.62Z"/><path class="cls-1" d="M49.45,54.42V47.06H52a4.57,4.57,0,0,1,2,.43,3.14,3.14,0,0,1,1.38,1.24,3.39,3.39,0,0,1,.49,1.83v.37a3.42,3.42,0,0,1-.49,1.84A3.28,3.28,0,0,1,54,54a4.79,4.79,0,0,1-2.09.43ZM51,48.09V53.4h1A2.23,2.23,0,0,0,54.42,51v-.41a2.52,2.52,0,0,0-.62-1.83A2.37,2.37,0,0,0,52,48.09Z"/><path class="cls-1" d="M64.37,50.93a4,4,0,0,1-.44,1.9,3.1,3.1,0,0,1-1.26,1.25,4.28,4.28,0,0,1-3.78,0,3,3,0,0,1-1.27-1.24A3.89,3.89,0,0,1,57.16,51v-.41a3.87,3.87,0,0,1,.45-1.9,3.17,3.17,0,0,1,1.27-1.27,4.35,4.35,0,0,1,3.77,0,3.1,3.1,0,0,1,1.27,1.24,4.06,4.06,0,0,1,.45,1.89Zm-1.51-.38a2.83,2.83,0,0,0-.55-1.88,2.15,2.15,0,0,0-3.08,0,2.84,2.84,0,0,0-.56,1.84v.42a2.87,2.87,0,0,0,.56,1.88,1.92,1.92,0,0,0,1.55.66,1.89,1.89,0,0,0,1.54-.65,2.88,2.88,0,0,0,.54-1.89Z"/><path class="cls-1" d="M68.91,54.42V47.06h2.57a4.57,4.57,0,0,1,2,.43,3.14,3.14,0,0,1,1.38,1.24,3.39,3.39,0,0,1,.49,1.83v.37a3.42,3.42,0,0,1-.49,1.84A3.28,3.28,0,0,1,73.5,54a4.79,4.79,0,0,1-2.09.43Zm1.51-6.33V53.4h1A2.23,2.23,0,0,0,73.88,51v-.41a2.52,2.52,0,0,0-.62-1.83,2.37,2.37,0,0,0-1.78-.63Z"/><path class="cls-1" d="M83.83,50.93a4,4,0,0,1-.44,1.9,3.1,3.1,0,0,1-1.26,1.25,4,4,0,0,1-1.89.44,4,4,0,0,1-1.88-.44,3,3,0,0,1-1.28-1.24A3.89,3.89,0,0,1,76.62,51v-.41a3.87,3.87,0,0,1,.45-1.9,3.17,3.17,0,0,1,1.27-1.27,4.35,4.35,0,0,1,3.77,0,3,3,0,0,1,1.27,1.24,3.94,3.94,0,0,1,.45,1.89Zm-1.51-.38a2.83,2.83,0,0,0-.55-1.88A1.91,1.91,0,0,0,80.23,48a1.86,1.86,0,0,0-1.53.65,2.79,2.79,0,0,0-.57,1.84v.42a2.87,2.87,0,0,0,.56,1.88,1.92,1.92,0,0,0,1.55.66,1.89,1.89,0,0,0,1.54-.65,2.88,2.88,0,0,0,.54-1.89Z"/><path class="cls-1" d="M5.26,64.27H2.18L1.53,66H.1l3-7.36H4.34l3,7.36H5.9Zm-2.7-1H4.87L3.72,60.18Z"/><path class="cls-1" d="M13.53,58.62l2.29,5.64,2.29-5.64h1.78V66H18.52V63.56l.13-3.25L16.31,66h-1L13,60.31l.13,3.25V66H11.74V58.62Z"/><path class="cls-1" d="M29.56,64.27H26.48L25.84,66H24.4l3-7.36h1.24l3,7.36H30.21Zm-2.69-1h2.31L28,60.18Z"/><path class="cls-1" d="M37.34,65h4.25v1H35.67v-.83l4.12-5.5H35.7v-1h5.76v.81Z"/><path class="cls-1" d="M52.47,62.49a4.19,4.19,0,0,1-.4,1.9,3,3,0,0,1-1.16,1.26,3.68,3.68,0,0,1-3.45,0,3.07,3.07,0,0,1-1.17-1.25,4.26,4.26,0,0,1-.42-1.87v-.41a4.12,4.12,0,0,1,.42-1.9A2.9,2.9,0,0,1,47.45,59a3.62,3.62,0,0,1,3.44,0,2.87,2.87,0,0,1,1.16,1.25,4,4,0,0,1,.42,1.88Zm-1.38-.38a3.07,3.07,0,0,0-.5-1.88,1.85,1.85,0,0,0-2.82,0,2.92,2.92,0,0,0-.51,1.84v.42a3,3,0,0,0,.51,1.88,1.68,1.68,0,0,0,1.41.66,1.65,1.65,0,0,0,1.41-.65,3.06,3.06,0,0,0,.5-1.89Z"/><path class="cls-1" d="M63.64,66H62.26l-3.54-5.22V66H57.33V58.62h1.39l3.55,5.24V58.62h1.37Z"/><path class="cls-1" d="M73.31,64.27H70.23L69.59,66H68.15l3-7.36h1.24l3,7.36H74Zm-2.69-1h2.3l-1.15-3.06Z"/><path class="cls-1" d="M84,64.09a.85.85,0,0,0-.37-.75,4.59,4.59,0,0,0-1.33-.53,6.76,6.76,0,0,1-1.53-.6,1.88,1.88,0,0,1-1.09-1.65,1.75,1.75,0,0,1,.79-1.46,3.3,3.3,0,0,1,2-.58,3.62,3.62,0,0,1,1.48.28,2.37,2.37,0,0,1,1,.81,2,2,0,0,1,.37,1.16H84a1.1,1.1,0,0,0-.39-.9,1.7,1.7,0,0,0-1.12-.33,1.77,1.77,0,0,0-1,.27.87.87,0,0,0-.37.75.78.78,0,0,0,.4.67,4.81,4.81,0,0,0,1.33.53,6.17,6.17,0,0,1,1.49.58,2.36,2.36,0,0,1,.83.75,1.87,1.87,0,0,1,.26,1,1.7,1.7,0,0,1-.76,1.46,3.53,3.53,0,0,1-2.07.54,4.36,4.36,0,0,1-1.59-.29A2.66,2.66,0,0,1,79.79,65a1.92,1.92,0,0,1-.4-1.21h1.38a1.15,1.15,0,0,0,.45,1,2.05,2.05,0,0,0,1.28.34,1.79,1.79,0,0,0,1.08-.27A.83.83,0,0,0,84,64.09Z"/><rect class="cls-1" y="31.76" width="85.42" height="1.08"/><rect class="cls-1" y="69.07" width="85.42" height="0.86"/></g></g></svg>