<svg xmlns="http://www.w3.org/2000/svg" viewBox="0 0 802.33 570.57"><defs><style>.cls-1{font-size:189.27px;}.cls-1,.cls-2{fill:#66a062;}.cls-1,.cls-3{font-family:Gotham-Book, Gotham;}.cls-3{font-size:68.4px;}.cls-4{letter-spacing:-0.01em;}.cls-5{letter-spacing:0em;}</style></defs><title>PLaceholder</title><g id="Camada_2" data-name="Camada 2"><g id="Camada_1-2" data-name="Camada 1"><text class="cls-1" transform="translate(0 160.88)">SEMPRE</text><path class="cls-2" d="M682.39,218h-72.7L519.2,423.9H351V360.25H499.27v-44.8H351.67V261.73h161V217l-224.27,1v254.7H567l19.82-52.77H708.21l18.43,52.77h66.7Zm-79.9,158,43.76-107.76L689.32,376Z"/><path class="cls-2" d="M133.94,479S244.65,481.66,256,397.42c-.63-76.28,0-180.51,0-180.51H192.34V376.22S197,434.57,134,432.58h-4c-63,1.93-58.35-56.36-58.35-56.36V217H8.11s.65,104.16,0,180.52c11.25,84.24,122.05,81.56,122.05,81.56Z"/><rect class="cls-2" x="8.29" y="182.64" width="785.04" height="5.46"/><text class="cls-3" transform="translate(191.33 559.01)">pla<tspan class="cls-4" x="103.02" y="0">c</tspan><tspan class="cls-5" x="141.05" y="0">eholder </tspan></text></g></g></svg>