<svg xmlns="http://www.w3.org/2000/svg" viewBox="0 0 785.23 452.59"><defs><style>.cls-1{isolation:isolate;}.cls-2{fill:#fff;}</style></defs><title>Ativo 6</title><g id="Camada_2" data-name="Camada 2"><g id="Camada_1-2" data-name="Camada 1"><g class="cls-1"><path class="cls-2" d="M23.69,43.39a16.87,16.87,0,0,0,5.49,6.92,40,40,0,0,0,11,5.69,131.86,131.86,0,0,0,18,4.83q22.16,4.94,32.65,13.65t10.51,24.07A35,35,0,0,1,88.65,126a41.69,41.69,0,0,1-14.24,7.58,59.54,59.54,0,0,1-18.17,2.65,79.31,79.31,0,0,1-29-5.13A82.17,82.17,0,0,1,2.11,115.27l9.27-11a78.19,78.19,0,0,0,21,14.1A60.47,60.47,0,0,0,56.81,123q13.44,0,21.48-6.26a19.89,19.89,0,0,0,8-16.49,22.13,22.13,0,0,0-1.52-8.44,16.86,16.86,0,0,0-5.32-6.72A37.34,37.34,0,0,0,69,79.62a132.8,132.8,0,0,0-17.17-4.74A137.27,137.27,0,0,1,32,69.19,49.49,49.49,0,0,1,18,61.42,28.46,28.46,0,0,1,9.88,50.8,35.7,35.7,0,0,1,7.22,36.4a33,33,0,0,1,3.22-14.6,33.94,33.94,0,0,1,9.08-11.47A44.21,44.21,0,0,1,33.34,2.75,53,53,0,0,1,50.75,0Q65.33,0,76.21,4a77.33,77.33,0,0,1,21.1,12.08l-8.7,11.54A64.85,64.85,0,0,0,70,16.66a56.62,56.62,0,0,0-19.59-3.41A37.17,37.17,0,0,0,38.73,15a29.19,29.19,0,0,0-8.89,4.55,19.63,19.63,0,0,0-5.68,6.82,18.93,18.93,0,0,0-2,8.53A22.82,22.82,0,0,0,23.69,43.39Z"/><path class="cls-2" d="M227.53,15.52H146.71V60.76H219V74.38h-72.3v46.37h81.77v13.63H131.76V1.89h95.77Z"/><path class="cls-2" d="M322.17,98h-.76L273.14,27.25V134.38H258.57V1.89h15.14L322,74.19l48.26-72.3h15.14V134.38H370.43V27.07Z"/><path class="cls-2" d="M517.87,63a40.06,40.06,0,0,1-11.26,13.62,48.92,48.92,0,0,1-16.56,8.24A71.72,71.72,0,0,1,470,87.63H437.81v46.75H422.86V1.89h49.59a66.45,66.45,0,0,1,20.34,2.94,46.63,46.63,0,0,1,15.71,8.32,36,36,0,0,1,10,13.25A43,43,0,0,1,522,44.1,41.12,41.12,0,0,1,517.87,63ZM497.31,23q-9.78-7.29-25.91-7.29H437.81V74h32.83a50.24,50.24,0,0,0,14.9-2.08,34.49,34.49,0,0,0,11.58-6,26.24,26.24,0,0,0,7.4-9.27,27.64,27.64,0,0,0,2.56-12Q507.08,30.28,497.31,23Z"/><path class="cls-2" d="M640.52,134.38,602.1,82.9H564.24v51.48h-15V1.89h57A64.36,64.36,0,0,1,626,4.73a44.78,44.78,0,0,1,15.05,8,35.88,35.88,0,0,1,9.65,12.5,37.8,37.8,0,0,1,3.4,16.19,39.18,39.18,0,0,1-2.65,14.86A33.76,33.76,0,0,1,644,67.7a42.14,42.14,0,0,1-11.45,8,53.43,53.43,0,0,1-14.39,4.54l40.7,54.09ZM630.27,22.64q-8.91-6.93-25-6.93h-41V69.65H605a46.79,46.79,0,0,0,13.66-1.9,33.39,33.39,0,0,0,10.82-5.41,24.79,24.79,0,0,0,7.11-8.64,25.55,25.55,0,0,0,2.56-11.59Q639.19,29.57,630.27,22.64Z"/><path class="cls-2" d="M781.9,15.52H701.08V60.76h72.3V74.38h-72.3v46.37h81.77v13.63H686.13V1.89H781.9Z"/></g><path class="cls-2" d="M674.28,191.5h-72.7L511.09,397.4H342.89V333.75H491.16V289H343.56V235.23h161V190.5l-224.27,1V446.2h278.6l19.82-52.77H700.1l18.43,52.77h66.7Zm-79.9,158,43.76-107.76L681.21,349.5Z"/><path class="cls-2" d="M125.83,452.5s110.71,2.66,122.06-81.58c-.63-76.28,0-180.51,0-180.51H184.23V349.72s4.66,58.35-58.34,56.36h-4c-63,1.93-58.35-56.36-58.35-56.36V190.5H0S.65,294.66,0,371c11.25,84.24,122.05,81.56,122.05,81.56Z"/><rect class="cls-2" x="0.18" y="156.14" width="785.04" height="5.46"/></g></g></svg>