<svg fill="#199900" xmlns="http://www.w3.org/2000/svg" viewBox="0 0 212.02 70.35"><defs><style>.cls-1{isolation:isolate;}</style></defs><title>Ativo 2</title><g id="Camada_2" data-name="Camada 2"><g id="Camada_1-2" data-name="Camada 1"><g class="cls-1"><path d="M2.22,14.05H4.86v1.83c1.27,2.33,2.91,3.44,5,3.44a3.45,3.45,0,0,0,3.72-3.44c0-1.67-.9-2.57-3.22-3.19l-2-.53a10.8,10.8,0,0,1-4.49-2.08,5.18,5.18,0,0,1-1.68-4C2.16,2.64,4.7.28,8.36.28A7.57,7.57,0,0,1,13,1.93V.53h2.58V6.89H13V5.43A5,5,0,0,0,8.58,3C6.44,3,5,4.07,5,5.68A2.6,2.6,0,0,0,6.16,7.85c.59.37,1,.53,3.38,1.12,3.26.87,3.88,1.08,5,2a6.4,6.4,0,0,1,2.14,4.87c0,3.53-2.79,6.2-6.6,6.2a7.69,7.69,0,0,1-5.18-2.08v1.74H2.22Z"/><path d="M21.2,3.26H18.47V.63H36V7H33.38V3.26h-9V9.52H32.2v2.64H24.39V19h9V15.2H36v6.48H18.47V19H21.2Z"/><path d="M40.29,3.26H37.75V.63H45L50.49,15,56,.63h7.35V3.26H60.85V19h2.54v2.64H55.45V19H58l0-15.78h-.06L50.68,21.9h-.59L43,3.26h-.06L42.9,19h2.29v2.64H37.75V19h2.54Z"/><path d="M67.42,3.26H64.75V.63h7.53c3.57,0,4.9.21,6.2,1a6.42,6.42,0,0,1,2.64,5.46,6.24,6.24,0,0,1-2.82,5.49c-1.58.86-2.48,1-6.26,1H70.58V19h2.73v2.64H64.75V19h2.67Zm5,7.82a7.83,7.83,0,0,0,3.72-.53A3.58,3.58,0,0,0,77.9,7.11a3.7,3.7,0,0,0-1.65-3.35c-.77-.44-1.39-.5-3.72-.5h-2v7.82Z"/><path d="M85.18,3.26H82.3V.63h8.52c3,0,3.78.12,5.15.77a5,5,0,0,1,2.76,4.74c0,2.7-1.52,4.53-4.34,5.25L98.11,19h2.57v2.64H96.12l-4.8-9.86h-3V19H91v2.64H82.3V19h2.88Zm5.64,6c2,0,2.27-.06,3.07-.4a2.77,2.77,0,0,0,1.55-2.7c0-2.13-1.11-2.85-4.4-2.85h-2.7v6Z"/><path d="M104.18,3.26h-2.73V.63H119V7h-2.6V3.26h-9V9.52h7.81v2.64h-7.81V19h9V15.2H119v6.48H101.45V19h2.73Z"/><path d="M11.48,54.09c0,5.65.06,6.32,1.1,8,1.29,2.09,3.74,3.19,7.12,3.19,3.74,0,6.51-1.1,7.61-3.13,1-1.66,1.17-2.82,1.17-7.73V33.23H23.63V28H40v5.22H34.74V55c0,6.51-.19,7.61-2.09,10.19-2.52,3.38-6.63,5.15-12.27,5.15-6.14,0-10.68-1.71-12.89-4.9S5.16,61.39,5.16,54.4V33.23H0V28H16.39v5.22H11.48Z"/><path d="M47.81,33.23h-5.4V28H77.09V40.53H71.93v-7.3H54.13V45.62H69.6v5.22H54.13V64.46h17.8V56.85h5.16V69.68H42.41V64.46h5.4Z"/><path d="M93.23,55,90,64.46h5.09v5.22H78.62V64.46h5L95.07,32.67H90V28h21.29v4.66h-5.15l11.66,31.79h4.66v5.22H106.12V64.46h5.15L108.14,55Zm7.86-22.34h-.56L94.77,50.16h11.84Z"/></g><path d="M206,29.25V11h.55a5.49,5.49,0,0,0,0-11H130.37a5.49,5.49,0,1,0,0,11h7.73V47.33h54.66V11h9.94V29.35a6,6,0,0,0-4.19,5.75v4.38a6,6,0,0,0,12.06,0V35.1A6,6,0,0,0,206,29.25Z"/><path d="M138.1,52.3v6.56c0,3.72,2.64,6.73,5.89,6.73h42.89c3.25,0,5.88-3,5.88-6.73V52.3Z"/></g></g></svg>