<svg xmlns="http://www.w3.org/2000/svg" viewBox="0 0 195.41 102.07"><defs><style>.cls-1{isolation:isolate;}</style></defs><title>Ativo 1</title><g id="Camada_2" data-name="Camada 2"><g id="Camada_1-2" data-name="Camada 1"><g class="cls-1"><path d="M44,80.21c0,5.65.06,6.32,1.1,8,1.29,2.09,3.75,3.19,7.12,3.19,3.75,0,6.51-1.1,7.61-3.13,1-1.66,1.17-2.82,1.17-7.73V59.35H56.19V54.13H72.51v5.22H67.3V81.13c0,6.51-.19,7.61-2.09,10.19-2.51,3.38-6.63,5.16-12.27,5.16-6.14,0-10.68-1.72-12.89-4.91s-2.33-4-2.33-11V59.35H32.56V54.13H49v5.22H44Z"/><path d="M80.37,59.35H75V54.13h34.68V66.65h-5.16v-7.3H86.7V71.74h15.46V77H86.7V90.58h17.79V83h5.16V95.8H75V90.58h5.4Z"/><path d="M125.79,81.13l-3.25,9.45h5.1V95.8H111.19V90.58h5l11.42-31.79h-5.1V54.13h21.3v4.66h-5.16l11.66,31.79H155V95.8H138.68V90.58h5.16l-3.13-9.45Zm7.86-22.34h-.55l-5.77,17.5h11.84Z"/></g><path d="M125.19,31.9c0-2.14-1.11-2.86-4.4-2.86h-2.7v6h2.48c2,0,2.27-.07,3.07-.41A2.77,2.77,0,0,0,125.19,31.9Z"/><path d="M106,29.54c-.77-.44-1.39-.5-3.72-.5h-2v7.82h1.83a7.83,7.83,0,0,0,3.72-.53,3.58,3.58,0,0,0,1.77-3.44A3.71,3.71,0,0,0,106,29.54Z"/><path d="M181.88,65.59v-41h1.23a12.3,12.3,0,1,0,0-24.59H12.3a12.3,12.3,0,1,0,0,24.59H29.65v25.5H152.23V24.59H174.5V65.83a13.54,13.54,0,0,0-9.39,12.88v9.83a13.53,13.53,0,1,0,27,0V78.71A13.51,13.51,0,0,0,181.88,65.59ZM39.79,47.8a7.69,7.69,0,0,1-5.18-2.08v1.74H32V39.83h2.64v1.83c1.27,2.33,2.92,3.44,5,3.44a3.45,3.45,0,0,0,3.72-3.44c0-1.67-.9-2.57-3.22-3.19l-2-.53a10.8,10.8,0,0,1-4.49-2.08,5.18,5.18,0,0,1-1.68-4c0-3.41,2.55-5.76,6.2-5.76a7.61,7.61,0,0,1,4.69,1.64v-1.4h2.57v6.36H42.8V31.21a5,5,0,0,0-4.47-2.42c-2.14,0-3.56,1.06-3.56,2.67a2.59,2.59,0,0,0,1.14,2.17c.59.37,1,.53,3.38,1.12,3.26.87,3.88,1.08,5,2a6.39,6.39,0,0,1,2.14,4.87C46.39,45.13,43.6,47.8,39.79,47.8ZM65.74,32.73H63.13V29h-9v6.27H62v2.63H54.14v6.88h9V41h2.61v6.48H48.22V44.82H51V29H48.22V26.41H65.74ZM93.14,29H90.6V44.82h2.54v2.64H85.2V44.82h2.52l0-15.78h-.07L80.43,47.68h-.59L72.74,29h-.06l0,15.78h2.29v2.64H67.5V44.82H70V29H67.5V26.41h7.26l5.48,14.42,5.55-14.42h7.35Zm14.91,9.37c-1.58.86-2.48,1-6.26,1h-1.46v5.42h2.73v2.64H94.5V44.82h2.67V29H94.5V26.41H102c3.56,0,4.9.21,6.2,1.05a6.44,6.44,0,0,1,2.63,5.46A6.19,6.19,0,0,1,108.05,38.41Zm22.38,9.05h-4.55l-4.81-9.86h-3v7.22h2.7v2.64h-8.74V44.82h2.88V29h-2.88V26.41h8.52c3,0,3.79.12,5.15.77a5,5,0,0,1,2.76,4.75c0,2.69-1.52,4.52-4.34,5.24l3.72,7.65h2.57Zm18.29-14.73h-2.6V29h-9v6.27h7.81v2.63h-7.81v6.88h9V41h2.6v6.48H131.2V44.82h2.73V29H131.2V26.41h17.52Z"/></g></g></svg>