<svg xmlns="http://www.w3.org/2000/svg" viewBox="0 0 200.91 120.21"><title>Ativo 3</title><g id="Camada_2" data-name="Camada 2"><g id="Camada_1-2" data-name="Camada 1"><path d="M41.7,102.21v8.89c0,5,5.43,9.11,12.13,9.11h88.44c6.71,0,12.14-4.08,12.14-9.11v-8.89Z"/><path d="M110.15,34.53c-.55-.31-1-.35-2.65-.35h-1.39v5.56h1.3a5.52,5.52,0,0,0,2.65-.38,2.54,2.54,0,0,0,1.26-2.44A2.67,2.67,0,0,0,110.15,34.53Z"/><polygon points="127.43 55.11 123.32 67.55 131.75 67.55 127.82 55.11 127.43 55.11"/><path d="M188.68,59.27v-37h1.11a11.12,11.12,0,1,0,0-22.23H11.11a11.12,11.12,0,0,0,0,22.23H43v73.7H153.78V22.23H182V59.49a12.23,12.23,0,0,0-8.49,11.64V80A12.23,12.23,0,0,0,198,80V71.13A12.24,12.24,0,0,0,188.68,59.27Zm-60.6-13.86H130V34.18h-1.94V32.3h12.47v4.51h-1.86V34.18h-6.4v4.46h5.56v1.87h-5.56v4.9h6.4V42.67h1.86v4.61H128.08Zm-13.63,0h2V34.18h-2V32.3h6.07c2.11,0,2.69.09,3.66.56a3.53,3.53,0,0,1,2,3.37A3.65,3.65,0,0,1,123.05,40l2.65,5.45h1.83v1.87h-3.24l-3.42-7h-2.12v5.14h1.92v1.87h-6.22Zm-31.7,0h1.81V34.18H82.75V32.3h5.16l3.91,10.26,4-10.26H101v1.88H99.19V45.41H101v1.87H95.35V45.41h1.79l0-11.23h0L92,47.44h-.42l-5-13.26h0l0,11.23h1.64v1.87h-5.3ZM69,45.41H71V34.18H69V32.3H81.5v4.51H79.64V34.18h-6.4v4.46H78.8v1.87H73.24v4.9h6.4V42.67H81.5v4.61H69ZM61.84,32.06a5.43,5.43,0,0,1,3.33,1.17v-1H67v4.52H65.17v-1A3.54,3.54,0,0,0,62,34c-1.52,0-2.53.75-2.53,1.9a1.87,1.87,0,0,0,.81,1.55,7.76,7.76,0,0,0,2.41.79c2.32.62,2.76.77,3.53,1.41a4.54,4.54,0,0,1,1.52,3.46A4.44,4.44,0,0,1,63,47.53a5.48,5.48,0,0,1-3.68-1.48v1.23H57.47V41.86h1.88v1.3a4,4,0,0,0,3.53,2.45,2.45,2.45,0,0,0,2.64-2.45c0-1.19-.63-1.83-2.29-2.27l-1.41-.38A7.7,7.7,0,0,1,58.62,39a3.69,3.69,0,0,1-1.19-2.86A4.08,4.08,0,0,1,61.84,32.06ZM84.32,55.5H80.61V71c0,4.63-.13,5.42-1.49,7.25-1.79,2.4-4.71,3.67-8.73,3.67-4.37,0-7.6-1.22-9.17-3.49s-1.66-2.89-1.66-7.86V55.5H55.89V51.79H67.55V55.5H64.06V70.35c0,4,0,4.5.78,5.67.92,1.49,2.67,2.27,5.07,2.27,2.66,0,4.63-.78,5.41-2.22.7-1.18.83-2,.83-5.5V55.5H72.7V51.79H84.32Zm26.42,5.2h-3.67V55.5H94.41v8.82h11V68h-11v9.7h12.66V72.31h3.67v9.13H86.07V77.73h3.84V55.5H86.07V51.79h24.67Zm-3.59-19.15h-1v3.86h1.94v1.87H102V45.41h1.9V34.18H102V32.3h5.36c2.54,0,3.49.16,4.42.75a4.58,4.58,0,0,1,1.87,3.89,4.39,4.39,0,0,1-2,3.9C110.48,41.46,109.84,41.55,107.15,41.55ZM143,81.44H131.4V77.73h3.67L132.84,71H122.23l-2.31,6.73h3.62v3.71h-11.7V77.73h3.58l8.12-22.62h-3.62V51.79h15.15v3.32H131.4l8.3,22.62H143Z"/><path d="M122.7,38.13a2,2,0,0,0,1.1-1.92c0-1.52-.79-2-3.13-2h-1.92v4.24h1.77A4.31,4.31,0,0,0,122.7,38.13Z"/></g></g></svg>